<svg xmlns="http://www.w3.org/2000/svg" version="1.1" xmlns:xlink="http://www.w3.org/1999/xlink" xmlns:svgjs="http://svgjs.dev/svgjs" width="1000" height="1000" viewBox="0 0 1000 1000"><rect width="1000" height="1000" fill="#010536"></rect><g transform="matrix(0.7,0,0,0.7,150.80665813060182,94.67846153846153)"><svg viewBox="0 0 213 247" data-background-color="#010536" preserveAspectRatio="xMidYMid meet" height="1159" width="1000" xmlns="http://www.w3.org/2000/svg" xmlns:xlink="http://www.w3.org/1999/xlink"><g id="tight-bounds" transform="matrix(1,0,0,1,-0.2454545454545496,-0.09999999999999432)"><svg viewBox="0 0 213.49090909090907 247.2" height="247.2" width="213.49090909090907"><g><svg viewBox="0 0 213.49090909090907 247.2" height="247.2" width="213.49090909090907"><g><svg viewBox="0 0 213.49090909090907 247.2" height="247.2" width="213.49090909090907"><g id="textblocktransform"><svg viewBox="0 0 213.49090909090907 247.2" height="247.2" width="213.49090909090907" id="textblock"><g><svg viewBox="0 0 213.49090909090907 247.2" height="247.2" width="213.49090909090907"><g transform="matrix(1,0,0,1,0,0)"><svg width="213.49090909090907" viewBox="1.75 -38.5 33.25 38.5" height="247.2" data-palette-color="#fbfbf8"><path d="M35-27.8L35-27.8Q35-22.4 30.8-19.58 26.6-16.75 18.6-16.75L18.6-16.75 14.35-16.75 14.35-7.95Q14.35-6.05 14.6-4.88 14.85-3.7 15.65-3.05 16.45-2.4 17.85-2.2 19.25-2 21.6-2L21.6-2 21.6 0 1.75 0 1.75-2Q3.4-2.05 4.45-2.3 5.5-2.55 6.05-3.15 6.6-3.75 6.8-4.85 7-5.95 7-7.7L7-7.7 7-30.8Q7-32.55 6.83-33.63 6.65-34.7 6.15-35.33 5.65-35.95 4.73-36.18 3.8-36.4 2.3-36.5L2.3-36.5 2.3-38.5 19.6-38.5Q27.2-38.5 31.1-35.8 35-33.1 35-27.8ZM14.35-34.85L14.35-19.75 17.6-19.75Q22.45-19.75 24.7-21.7 26.95-23.65 26.95-27.85L26.95-27.85Q26.95-31.6 25.05-33.65 23.15-35.7 19.1-35.7L19.1-35.7 15.25-35.7Q14.35-35.7 14.35-34.85L14.35-34.85Z" opacity="1" transform="matrix(1,0,0,1,0,0)" fill="#fbfbf8" class="wordmark-text-0" data-fill-palette-color="primary" id="text-0"></path></svg></g></svg></g></svg></g></svg></g></svg></g><defs></defs></svg><rect width="213.49090909090907" height="247.2" fill="none" stroke="none" visibility="hidden"></rect></g></svg></g></svg>